<svg version="1.1" id="Layer_1" xmlns="http://www.w3.org/2000/svg" xmlns:xlink="http://www.w3.org/1999/xlink" x="0px" y="0px"
	 width="100%" viewBox="0 0 242 208" enable-background="new 0 0 242 208" xml:space="preserve">
<path fill="#FFFFFF" opacity="1.000000" stroke="none" 
	d="
M142.000000,209.000000 
	C94.666672,209.000000 47.833340,209.000000 1.000006,209.000000 
	C1.000004,139.666672 1.000004,70.333344 1.000002,1.000016 
	C81.666656,1.000010 162.333313,1.000010 242.999969,1.000005 
	C242.999985,70.333321 242.999985,139.666641 243.000000,208.999969 
	C209.500000,209.000000 176.000000,209.000000 142.000000,209.000000 
M162.637604,49.755859 
	C167.484909,45.902985 172.503586,42.236389 177.048492,38.054840 
	C178.073074,37.112175 178.277191,33.294312 177.437149,32.647968 
	C173.570282,29.672745 169.200058,27.351721 164.616959,24.215984 
	C161.456772,22.881855 158.402237,21.115299 155.112457,20.311642 
	C149.740005,18.999201 144.214233,18.314396 138.021912,17.073446 
	C132.537811,17.636818 127.055244,18.215778 121.568596,18.753094 
	C120.115974,18.895351 118.650787,18.909399 117.139282,18.218750 
	C115.718567,14.405814 112.125244,14.298416 109.736130,15.581799 
	C107.846741,16.596741 106.178520,19.921907 106.161972,22.233669 
	C105.978996,47.792030 106.165413,73.352852 106.153542,98.912964 
	C106.152580,100.971695 105.425110,103.030090 104.166130,104.966156 
	C93.746628,105.706337 83.748665,108.229958 74.762901,113.537933 
	C62.798771,120.605255 55.845303,130.582870 58.436737,145.330795 
	C58.808601,147.447052 58.927948,149.653427 58.819443,151.800674 
	C58.268593,162.701279 63.999321,169.906738 72.458336,175.664413 
	C81.946861,182.122849 92.840378,184.030365 103.808739,186.201538 
	C114.052338,188.229248 123.911972,187.857101 134.536789,184.813736 
	C138.395798,183.336929 142.773071,182.567581 145.988464,180.212158 
	C150.453201,176.941574 154.046112,172.480835 158.756470,168.384109 
	C164.029938,165.710236 165.444290,160.700226 165.816711,155.528625 
	C166.228226,149.813995 165.783783,144.041916 165.827118,138.295731 
	C165.911285,127.134560 160.052383,119.503716 151.075653,113.977463 
	C140.966904,107.754288 129.632568,105.289764 117.958618,103.186562 
	C117.802925,100.460075 117.647224,97.733589 117.745071,94.099358 
	C117.755905,80.770813 117.719597,67.441872 117.831505,54.114182 
	C117.847198,52.245819 118.589470,50.383560 119.469521,49.058464 
	C128.626587,56.073254 138.542404,59.082722 150.630203,54.924400 
	C154.421707,53.306412 158.213196,51.688423 162.637604,49.755859 
z"/>
<path fill="#EEC853" opacity="1.000000" stroke="none" 
	d="
M133.767807,184.714294 
	C123.911972,187.857101 114.052338,188.229248 103.808739,186.201538 
	C92.840378,184.030365 81.946861,182.122849 72.458336,175.664413 
	C63.999321,169.906738 58.268593,162.701279 58.819443,151.800674 
	C58.927948,149.653427 58.808601,147.447052 58.436737,145.330795 
	C55.845303,130.582870 62.798771,120.605255 74.762901,113.537933 
	C83.748665,108.229958 93.746628,105.706337 104.763092,105.393616 
	C105.552071,108.600487 105.744087,111.379913 105.526566,114.103760 
	C103.738327,114.015488 102.359627,113.982780 100.800156,113.713669 
	C99.741035,113.818825 98.862686,114.160378 97.602798,114.650665 
	C87.563713,117.021187 78.273033,120.038376 71.539612,127.904671 
	C66.122437,134.233261 65.932632,142.219147 72.291893,147.455231 
	C77.539780,151.776230 83.819389,155.430420 90.241852,157.620224 
	C104.954269,162.636536 119.978355,161.693283 134.857483,157.764893 
	C134.526001,167.045456 134.146896,175.879883 133.767807,184.714294 
z"/>
<path fill="#ECC754" opacity="1.000000" stroke="none" 
	d="
M105.936111,114.159332 
	C105.744087,111.379913 105.552071,108.600487 105.197655,105.454849 
	C105.425110,103.030090 106.152580,100.971695 106.153542,98.912964 
	C106.165413,73.352852 105.978996,47.792030 106.161972,22.233669 
	C106.178520,19.921907 107.846741,16.596741 109.736130,15.581799 
	C112.125244,14.298416 115.718567,14.405814 116.766045,18.610668 
	C112.856148,19.462612 111.582138,21.241013 112.338890,24.889194 
	C112.666344,26.467762 111.681862,28.279255 111.527710,30.005867 
	C111.279236,32.789043 110.127815,36.252800 111.327988,38.237934 
	C113.500267,41.830956 120.444801,43.027058 123.627396,41.726524 
	C131.731125,38.415028 139.887115,35.231438 148.292236,32.245567 
	C151.443039,39.793053 151.702164,47.241436 149.837479,54.811176 
	C138.542404,59.082722 128.626587,56.073254 119.140511,48.509163 
	C115.232513,48.188339 116.046989,50.960014 116.036064,53.034088 
	C115.969849,65.603432 115.956497,78.173729 116.069740,90.742409 
	C116.082588,92.168129 116.995811,93.585732 117.491531,95.007103 
	C117.647224,97.733589 117.802925,100.460075 118.037796,103.990715 
	C119.750534,107.816948 121.384094,110.839020 122.584625,113.914131 
	C119.300018,113.578598 117.826630,114.393715 118.004875,117.700272 
	C118.255196,122.344002 118.133263,127.012970 118.039383,131.668503 
	C117.959488,135.630493 116.291298,138.696960 111.952377,138.670044 
	C107.636185,138.643280 105.972313,135.649246 105.955559,131.624115 
	C105.931328,125.802589 105.940941,119.980934 105.936111,114.159332 
z"/>
<path fill="#F2E2AF" opacity="1.000000" stroke="none" 
	d="
M134.152298,184.764008 
	C134.146896,175.879883 134.526001,167.045456 135.215576,157.618576 
	C146.313965,152.291794 156.997437,147.468033 156.587204,132.931244 
	C157.927383,137.188873 159.725754,141.358246 159.720505,145.525345 
	C159.710861,153.194122 158.640518,160.861588 158.012238,168.529587 
	C154.046112,172.480835 150.453201,176.941574 145.988464,180.212158 
	C142.773071,182.567581 138.395798,183.336929 134.152298,184.764008 
z"/>
<path fill="#EFCA5E" opacity="1.000000" stroke="none" 
	d="
M158.384354,168.456848 
	C158.640518,160.861588 159.710861,153.194122 159.720505,145.525345 
	C159.725754,141.358246 157.927383,137.188873 156.481201,132.602036 
	C151.537003,125.036209 145.001343,120.496185 137.173279,117.821739 
	C132.544022,116.240166 127.741989,115.164345 123.017647,113.861099 
	C121.384094,110.839020 119.750534,107.816948 118.041870,104.450348 
	C129.632568,105.289764 140.966904,107.754288 151.075653,113.977463 
	C160.052383,119.503716 165.911285,127.134560 165.827118,138.295731 
	C165.783783,144.041916 166.228226,149.813995 165.816711,155.528625 
	C165.444290,160.700226 164.029938,165.710236 158.384354,168.456848 
z"/>
<path fill="#E7C350" opacity="1.000000" stroke="none" 
	d="
M148.022186,31.996658 
	C139.887115,35.231438 131.731125,38.415028 123.627396,41.726524 
	C120.444801,43.027058 113.500267,41.830956 111.327988,38.237934 
	C110.127815,36.252800 111.279236,32.789043 111.527710,30.005867 
	C111.681862,28.279255 112.666344,26.467762 112.338890,24.889194 
	C111.582138,21.241013 112.856148,19.462612 116.792091,18.992453 
	C118.650787,18.909399 120.115974,18.895351 121.568596,18.753094 
	C127.055244,18.215778 132.537811,17.636818 138.508179,17.519642 
	C142.003677,22.642778 145.012939,27.319717 148.022186,31.996658 
z"/>
<path fill="#EADEAB" opacity="1.000000" stroke="none" 
	d="
M148.292236,32.245564 
	C145.012939,27.319717 142.003677,22.642778 138.873779,17.665318 
	C144.214233,18.314396 149.740005,18.999201 155.112457,20.311642 
	C158.402237,21.115299 161.456772,22.881855 164.809677,24.956367 
	C164.003159,33.821316 163.003922,41.945877 162.004700,50.070435 
	C158.213196,51.688423 154.421707,53.306412 150.233841,54.867790 
	C151.702164,47.241436 151.443039,39.793053 148.292236,32.245564 
z"/>
<path fill="#EBC656" opacity="1.000000" stroke="none" 
	d="
M162.321152,49.913147 
	C163.003922,41.945877 164.003159,33.821316 165.006393,25.246399 
	C169.200058,27.351721 173.570282,29.672745 177.437149,32.647968 
	C178.277191,33.294312 178.073074,37.112175 177.048492,38.054840 
	C172.503586,42.236389 167.484909,45.902985 162.321152,49.913147 
z"/>
<path fill="#EFCA5E" opacity="1.000000" stroke="none" 
	d="
M117.618301,94.553230 
	C116.995811,93.585732 116.082588,92.168129 116.069740,90.742409 
	C115.956497,78.173729 115.969849,65.603432 116.036064,53.034088 
	C116.046989,50.960014 115.232513,48.188339 118.903458,48.239170 
	C118.589470,50.383560 117.847198,52.245819 117.831505,54.114182 
	C117.719597,67.441872 117.755905,80.770813 117.618301,94.553230 
z"/>
<path fill="#FEFDFB" opacity="1.000000" stroke="none" 
	d="
M122.584625,113.914124 
	C127.741989,115.164345 132.544022,116.240166 137.173279,117.821739 
	C145.001343,120.496185 151.537003,125.036209 156.125885,132.512756 
	C156.997437,147.468033 146.313965,152.291794 135.167969,157.172424 
	C119.978355,161.693283 104.954269,162.636536 90.241852,157.620224 
	C83.819389,155.430420 77.539780,151.776230 72.291893,147.455231 
	C65.932632,142.219147 66.122437,134.233261 71.539612,127.904671 
	C78.273033,120.038376 87.563713,117.021187 97.914490,114.759476 
	C99.398796,114.463074 100.189857,114.206573 100.980919,113.950073 
	C102.359627,113.982780 103.738327,114.015488 105.526573,114.103760 
	C105.940941,119.980934 105.931328,125.802589 105.955559,131.624115 
	C105.972313,135.649246 107.636185,138.643280 111.952377,138.670044 
	C116.291298,138.696960 117.959488,135.630493 118.039383,131.668503 
	C118.133263,127.012970 118.255196,122.344002 118.004875,117.700272 
	C117.826630,114.393715 119.300018,113.578598 122.584625,113.914124 
z"/>
<path fill="#EFCA5E" opacity="1.000000" stroke="none" 
	d="
M100.800156,113.713669 
	C100.189857,114.206573 99.398796,114.463074 98.296036,114.610756 
	C98.862686,114.160378 99.741035,113.818825 100.800156,113.713669 
z"/>
</svg>