<svg version="1.1" id="Layer_1" xmlns="http://www.w3.org/2000/svg" xmlns:xlink="http://www.w3.org/1999/xlink" x="0px" y="0px"
	 width="100%" viewBox="0 0 102 111" enable-background="new 0 0 102 111" xml:space="preserve">
<path fill="#FEFFFF" opacity="1.000000" stroke="none" 
	d="
M51.000000,112.000000 
	C34.000004,112.000000 17.500004,112.000000 1.000005,112.000000 
	C1.000003,75.000008 1.000003,38.000011 1.000001,1.000014 
	C34.999989,1.000010 68.999977,1.000010 102.999977,1.000005 
	C102.999985,37.999985 102.999985,74.999969 102.999992,111.999977 
	C85.833336,112.000000 68.666664,112.000000 51.000000,112.000000 
M65.147545,76.748962 
	C65.831444,76.025185 66.503822,75.290100 67.201012,74.579361 
	C75.044113,66.583733 77.283890,58.218357 72.903229,49.403576 
	C68.530617,40.605011 61.525967,35.593006 51.000084,36.245941 
	C42.689995,36.761429 35.088631,41.355789 32.107250,48.695030 
	C28.477392,57.630619 29.486248,66.120575 35.837467,73.297386 
	C43.167778,81.580566 52.999153,82.600395 65.147545,76.748962 
z"/>
<path fill="#0A6C52" opacity="1.000000" stroke="none" 
	d="
M64.841507,76.951752 
	C52.999153,82.600395 43.167778,81.580566 35.837467,73.297386 
	C29.486248,66.120575 28.477392,57.630619 32.107250,48.695030 
	C35.088631,41.355789 42.689995,36.761429 51.000084,36.245941 
	C61.525967,35.593006 68.530617,40.605011 72.903229,49.403576 
	C77.283890,58.218357 75.044113,66.583733 67.201012,74.579361 
	C66.503822,75.290100 65.831444,76.025185 64.841507,76.951752 
M63.362362,66.765656 
	C64.137100,63.441967 65.606743,60.104855 65.542877,56.797359 
	C65.407135,49.767689 57.625969,44.088844 50.338909,45.089256 
	C43.086941,46.084854 37.873016,53.664112 39.126667,60.670139 
	C41.070301,71.532135 53.583218,76.324928 63.362362,66.765656 
z"/>
<path fill="#EEF8F6" opacity="1.000000" stroke="none" 
	d="
M63.128521,67.063049 
	C53.583218,76.324928 41.070301,71.532135 39.126667,60.670139 
	C37.873016,53.664112 43.086941,46.084854 50.338909,45.089256 
	C57.625969,44.088844 65.407135,49.767689 65.542877,56.797359 
	C65.606743,60.104855 64.137100,63.441967 63.128521,67.063049 
M50.228912,64.634628 
	C52.661175,64.191498 55.407200,64.275391 57.397747,63.090313 
	C58.445488,62.466537 59.040676,59.080395 58.303528,57.906704 
	C57.040676,55.895985 54.762337,53.915936 52.540554,53.333279 
	C51.117416,52.960068 47.586849,55.043602 47.529423,56.156300 
	C47.392773,58.803944 48.757843,61.529095 50.228912,64.634628 
z"/>
<path fill="#0C6C53" opacity="1.000000" stroke="none" 
	d="
M49.872562,64.428780 
	C48.757843,61.529095 47.392773,58.803944 47.529423,56.156300 
	C47.586849,55.043602 51.117416,52.960068 52.540554,53.333279 
	C54.762337,53.915936 57.040676,55.895985 58.303528,57.906704 
	C59.040676,59.080395 58.445488,62.466537 57.397747,63.090313 
	C55.407200,64.275391 52.661175,64.191498 49.872562,64.428780 
z"/>
</svg>