<svg version="1.1" id="Layer_1" xmlns="http://www.w3.org/2000/svg" xmlns:xlink="http://www.w3.org/1999/xlink" x="0px" y="0px"
	 width="100%" viewBox="0 0 320 304" enable-background="new 0 0 320 304" xml:space="preserve">
<path fill="#008162" opacity="1.000000" stroke="none" 
	d="
M168.722488,156.063965 
	C168.548889,150.505371 165.068008,149.693771 161.078094,150.281647 
	C155.695663,151.074677 151.044296,153.666504 146.804565,157.048401 
	C137.073090,164.810837 131.074860,174.994659 127.520561,186.742661 
	C126.633194,189.675690 125.229408,192.247314 123.297165,194.590118 
	C120.473228,198.014084 116.831711,199.281891 112.590981,198.334503 
	C108.215538,197.357010 105.693398,194.115906 104.873909,190.003906 
	C98.802567,159.539444 105.140915,132.139160 125.755585,108.534897 
	C142.386185,89.492462 163.679962,77.995728 187.702423,71.130486 
	C198.892212,67.932625 210.120667,64.825157 221.882996,64.689064 
	C229.183945,64.604591 231.887390,67.121811 235.143814,73.736732 
	C242.906174,89.504753 244.243912,106.061455 241.055679,122.878708 
	C234.667252,156.576309 220.725967,186.214630 191.897141,206.747192 
	C182.013519,213.786530 170.780228,217.412720 158.360840,214.246048 
	C150.856720,212.332657 147.738480,206.794525 149.090622,199.121109 
	C150.720306,189.872620 155.107376,181.974945 159.917572,174.108963 
	C163.337753,168.516022 168.162949,163.518890 168.722488,156.063965 
z"/>
</svg>