<svg version="1.1" id="Layer_1" xmlns="http://www.w3.org/2000/svg" xmlns:xlink="http://www.w3.org/1999/xlink" x="0px" y="0px"
	 width="100%" viewBox="0 0 224 160" enable-background="new 0 0 224 160" xml:space="preserve">
<path fill="rgb(243, 201, 78)" opacity="1.000000" stroke="none" 
	d="
M126.259300,110.447426 
	C109.128212,118.252083 93.059059,114.990059 77.577621,106.916573 
	C70.031143,102.981133 66.718048,96.140533 66.696648,87.520096 
	C66.651321,69.256226 73.079369,61.366405 91.306244,57.303898 
	C105.321609,54.180077 118.785370,55.129238 131.445419,62.227299 
	C138.419159,66.137238 142.691422,71.945114 142.466476,80.368256 
	C142.422180,82.026100 142.315094,83.713348 142.547958,85.342590 
	C144.394089,98.260025 136.290451,104.770241 126.259300,110.447426 
M103.682594,63.425465 
	C95.521896,64.154953 87.444572,65.236099 80.579788,70.264923 
	C72.863167,75.917763 73.108963,83.545769 81.097809,88.831093 
	C93.363693,96.946053 116.016617,96.783813 128.155533,88.494087 
	C136.666168,82.682129 136.549896,75.188240 127.884544,69.565964 
	C120.777328,64.954659 112.712517,64.016068 103.682594,63.425465 
z"/>
<path fill="rgb(243, 201, 78)" opacity="1.000000" stroke="none" 
	d="
M103.171112,86.535187 
	C101.928825,86.766876 101.108353,87.032013 100.289497,87.027138 
	C97.263702,87.009140 93.353447,88.930717 91.544006,85.715729 
	C89.887726,82.772865 92.609589,79.701080 94.226746,77.117371 
	C97.389755,72.063911 101.360443,67.755386 107.862785,67.329887 
	C111.862114,67.068169 115.606400,67.866051 117.452881,72.037552 
	C119.352455,76.329025 117.176605,79.472992 114.061775,82.047089 
	C111.054718,84.532120 107.439362,85.824783 103.171112,86.535187 
z"/>
</svg>