<svg version="1.1" id="Layer_1" xmlns="http://www.w3.org/2000/svg" xmlns:xlink="http://www.w3.org/1999/xlink" x="0px" y="0px"
	 width="100%" viewBox="0 0 80 76" enable-background="new 0 0 80 76" xml:space="preserve">
<path fill="#FEFEFE" opacity="1.000000" stroke="none" 
	d="
M47.000000,77.000000 
	C31.333334,77.000000 16.166666,77.000000 1.000000,77.000000 
	C1.000000,51.666668 1.000000,26.333334 1.000000,1.000000 
	C27.666666,1.000000 54.333332,1.000000 81.000000,1.000000 
	C81.000000,26.333334 81.000000,51.666668 81.000000,77.000000 
	C69.833336,77.000000 58.666668,77.000000 47.000000,77.000000 
M40.216896,15.902150 
	C35.811394,15.834317 33.386654,18.228037 31.820274,22.150141 
	C31.350092,23.327444 29.713505,24.755981 28.554188,24.808460 
	C24.867458,24.975359 24.103811,27.158428 24.093798,30.104393 
	C24.066080,38.258385 24.130295,46.412807 24.076223,54.566521 
	C24.057537,57.384220 25.090748,59.016048 28.098242,59.010830 
	C36.585087,58.996113 45.082596,59.215031 53.549225,58.798939 
	C55.112492,58.722111 57.768089,56.166565 57.844555,54.650433 
	C58.263115,46.351433 58.126331,38.018154 57.977913,29.700266 
	C57.926769,26.833805 56.882126,24.644770 53.169746,24.788757 
	C52.081612,24.830957 50.768013,23.225918 49.829189,22.140972 
	C47.382042,19.312935 46.153664,14.856088 40.216896,15.902150 
z"/>
<path fill="#066A4E" opacity="1.000000" stroke="none" 
	d="
M40.603348,15.894841 
	C46.153664,14.856088 47.382042,19.312935 49.829189,22.140972 
	C50.768013,23.225918 52.081612,24.830957 53.169746,24.788757 
	C56.882126,24.644770 57.926769,26.833805 57.977913,29.700266 
	C58.126331,38.018154 58.263115,46.351433 57.844555,54.650433 
	C57.768089,56.166565 55.112492,58.722111 53.549225,58.798939 
	C45.082596,59.215031 36.585087,58.996113 28.098242,59.010830 
	C25.090748,59.016048 24.057537,57.384220 24.076223,54.566521 
	C24.130295,46.412807 24.066080,38.258385 24.093798,30.104393 
	C24.103811,27.158428 24.867458,24.975359 28.554188,24.808460 
	C29.713505,24.755981 31.350092,23.327444 31.820274,22.150141 
	C33.386654,18.228037 35.811394,15.834317 40.603348,15.894841 
M40.393841,53.008736 
	C46.068638,50.393848 48.161381,45.798889 47.956566,39.764557 
	C47.824970,35.887295 45.724903,34.885204 42.379650,35.497177 
	C35.737209,36.712330 31.519350,43.428963 33.073502,50.412872 
	C35.830349,47.479595 38.533909,44.603012 41.237469,41.726429 
	C41.773582,42.149185 42.309696,42.571945 42.845810,42.994701 
	C41.735767,45.042072 40.421349,47.011604 39.599758,49.168835 
	C39.172989,50.289387 39.617210,51.741661 40.393841,53.008736 
M45.773121,20.880041 
	C40.470814,16.337261 37.376808,17.113674 33.869347,24.898922 
	C38.210079,24.898922 42.064697,24.922194 45.911667,24.761850 
	C46.005764,24.757931 46.014832,22.714037 45.773121,20.880041 
z"/>
<path fill="#D5DBA9" opacity="1.000000" stroke="none" 
	d="
M40.030907,53.026409 
	C39.617210,51.741661 39.172989,50.289387 39.599758,49.168835 
	C40.421349,47.011604 41.735767,45.042072 42.845810,42.994701 
	C42.309696,42.571945 41.773582,42.149185 41.237469,41.726429 
	C38.533909,44.603012 35.830349,47.479595 33.073502,50.412872 
	C31.519350,43.428963 35.737209,36.712330 42.379650,35.497177 
	C45.724903,34.885204 47.824970,35.887295 47.956566,39.764557 
	C48.161381,45.798889 46.068638,50.393848 40.030907,53.026409 
z"/>
<path fill="#D8DFAF" opacity="1.000000" stroke="none" 
	d="
M45.918335,21.250816 
	C46.014832,22.714037 46.005764,24.757931 45.911667,24.761850 
	C42.064697,24.922194 38.210079,24.898922 33.869347,24.898922 
	C37.376808,17.113674 40.470814,16.337261 45.918335,21.250816 
z"/>
</svg>