<svg version="1.1" id="Layer_1" xmlns="http://www.w3.org/2000/svg" xmlns:xlink="http://www.w3.org/1999/xlink" x="0px" y="0px"
	 width="100%" viewBox="0 0 101 85" enable-background="new 0 0 101 85" xml:space="preserve">
<path fill="#FEFFFF" opacity="1.000000" stroke="none" 
	d="
M60.000000,86.000000 
	C40.000004,86.000000 20.500008,86.000000 1.000008,86.000000 
	C1.000005,57.666676 1.000005,29.333351 1.000003,1.000019 
	C34.666653,1.000013 68.333305,1.000013 101.999969,1.000006 
	C101.999977,29.333313 101.999977,57.666626 101.999985,85.999969 
	C88.166664,86.000000 74.333336,86.000000 60.000000,86.000000 
M40.836979,19.257204 
	C30.209282,22.879309 25.109219,29.497646 25.127047,39.643944 
	C25.148998,52.136879 35.015705,61.421116 47.292782,60.501152 
	C59.662975,59.574203 68.877533,48.293800 66.945435,36.442505 
	C64.980980,24.392723 53.548645,16.594549 40.836979,19.257204 
z"/>
<path fill="#0A6C50" opacity="1.000000" stroke="none" 
	d="
M41.235298,19.217064 
	C53.548645,16.594549 64.980980,24.392723 66.945435,36.442505 
	C68.877533,48.293800 59.662975,59.574203 47.292782,60.501152 
	C35.015705,61.421116 25.148998,52.136879 25.127047,39.643944 
	C25.109219,29.497646 30.209282,22.879309 41.235298,19.217064 
M43.910923,52.737091 
	C48.245403,51.496742 52.625156,50.384716 56.868961,48.887375 
	C57.561253,48.643112 57.653053,46.696911 58.022400,45.537346 
	C56.859028,45.405281 55.299908,44.722427 54.595226,45.228748 
	C49.209095,49.098755 43.956524,49.072861 38.419334,45.561657 
	C37.713764,45.114250 36.179039,45.974434 35.028435,46.228844 
	C35.357334,47.237286 35.382530,48.739735 36.071136,49.163074 
	C38.283699,50.523304 40.741302,51.484947 43.910923,52.737091 
M38.853252,35.267498 
	C37.355820,35.029594 35.861679,34.767700 34.359879,34.561619 
	C33.221962,34.405468 32.074280,34.320473 30.930941,34.203815 
	C31.079996,35.558350 30.720236,37.398632 31.467848,38.181747 
	C34.409039,41.262615 38.083942,40.953484 41.473000,39.046753 
	C42.604362,38.410233 43.057465,36.568161 43.820618,35.277184 
	C42.391510,35.168789 40.962402,35.060390 38.853252,35.267498 
M57.823109,40.482952 
	C58.727615,40.091217 60.025227,39.942780 60.451035,39.254780 
	C61.227386,38.000389 61.486931,36.426140 61.962082,34.985332 
	C60.674202,35.054035 59.379021,35.241570 58.100189,35.163013 
	C56.276184,35.050964 54.469002,34.651993 52.645138,34.555931 
	C51.618118,34.501842 50.108307,34.456631 49.657413,35.048462 
	C49.147644,35.717575 49.232265,37.855843 49.662365,38.055729 
	C52.022972,39.152836 54.568687,39.851658 57.823109,40.482952 
z"/>
<path fill="#D8DDAB" opacity="1.000000" stroke="none" 
	d="
M43.507652,52.668716 
	C40.741302,51.484947 38.283699,50.523304 36.071136,49.163074 
	C35.382530,48.739735 35.357334,47.237286 35.028435,46.228844 
	C36.179039,45.974434 37.713764,45.114250 38.419334,45.561657 
	C43.956524,49.072861 49.209095,49.098755 54.595226,45.228748 
	C55.299908,44.722427 56.859028,45.405281 58.022400,45.537346 
	C57.653053,46.696911 57.561253,48.643112 56.868961,48.887375 
	C52.625156,50.384716 48.245403,51.496742 43.507652,52.668716 
z"/>
<path fill="#D7DDAB" opacity="1.000000" stroke="none" 
	d="
M39.193275,35.109749 
	C40.962402,35.060390 42.391510,35.168789 43.820618,35.277184 
	C43.057465,36.568161 42.604362,38.410233 41.473000,39.046753 
	C38.083942,40.953484 34.409039,41.262615 31.467848,38.181747 
	C30.720236,37.398632 31.079996,35.558350 30.930941,34.203815 
	C32.074280,34.320473 33.221962,34.405468 34.359879,34.561619 
	C35.861679,34.767700 37.355820,35.029594 39.193275,35.109749 
z"/>
<path fill="#DADFAC" opacity="1.000000" stroke="none" 
	d="
M57.436974,40.585091 
	C54.568687,39.851658 52.022972,39.152836 49.662365,38.055729 
	C49.232265,37.855843 49.147644,35.717575 49.657413,35.048462 
	C50.108307,34.456631 51.618118,34.501842 52.645138,34.555931 
	C54.469002,34.651993 56.276184,35.050964 58.100189,35.163013 
	C59.379021,35.241570 60.674202,35.054035 61.962082,34.985332 
	C61.486931,36.426140 61.227386,38.000389 60.451035,39.254780 
	C60.025227,39.942780 58.727615,40.091217 57.436974,40.585091 
z"/>
</svg>