<svg version="1.1" id="Layer_1" xmlns="http://www.w3.org/2000/svg" xmlns:xlink="http://www.w3.org/1999/xlink" x="0px" y="0px"
	 width="100%" viewBox="0 0 87 63" enable-background="new 0 0 87 63" xml:space="preserve">
<path fill="#FFFFFE" opacity="1.000000" stroke="none" 
	d="
M50.000000,64.000000 
	C33.333336,64.000000 17.166672,64.000000 1.000006,64.000000 
	C1.000004,43.000008 1.000004,22.000013 1.000002,1.000015 
	C29.999987,1.000010 58.999973,1.000010 87.999969,1.000005 
	C87.999985,21.999985 87.999985,42.999969 87.999992,63.999977 
	C75.500000,64.000000 63.000000,64.000000 50.000000,64.000000 
M51.209377,25.268261 
	C49.659748,24.489470 47.348923,24.099251 46.713211,22.853926 
	C45.223507,19.935669 42.868484,18.903536 40.763958,20.667433 
	C37.915916,23.054510 34.164295,26.343979 33.966133,29.448387 
	C33.668312,34.114182 43.009266,36.412449 46.729881,33.104420 
	C47.417633,32.492935 48.967461,31.958817 49.554661,32.316391 
	C50.697628,33.012394 51.750134,34.253590 52.199699,35.499966 
	C52.384216,36.011517 51.060879,37.558334 50.160408,37.867111 
	C48.311913,38.500973 46.173866,38.329514 44.366779,39.033302 
	C42.779579,39.651455 41.481350,41.011581 40.055492,42.043999 
	C41.287415,43.172733 42.379597,45.033798 43.776054,45.300274 
	C49.112366,46.318562 54.050209,44.915218 57.980297,41.090553 
	C61.643055,37.526039 61.395512,32.261665 57.445274,28.790461 
	C55.863560,27.400555 53.790226,26.570114 51.209377,25.268261 
z"/>
<path fill="#A4B454" opacity="1.000000" stroke="none" 
	d="
M51.575020,25.376637 
	C53.790226,26.570114 55.863560,27.400555 57.445274,28.790461 
	C61.395512,32.261665 61.643055,37.526039 57.980297,41.090553 
	C54.050209,44.915218 49.112366,46.318562 43.776054,45.300274 
	C42.379597,45.033798 41.287415,43.172733 40.055492,42.043999 
	C41.481350,41.011581 42.779579,39.651455 44.366779,39.033302 
	C46.173866,38.329514 48.311913,38.500973 50.160408,37.867111 
	C51.060879,37.558334 52.384216,36.011517 52.199699,35.499966 
	C51.750134,34.253590 50.697628,33.012394 49.554661,32.316391 
	C48.967461,31.958817 47.417633,32.492935 46.729881,33.104420 
	C43.009266,36.412449 33.668312,34.114182 33.966133,29.448387 
	C34.164295,26.343979 37.915916,23.054510 40.763958,20.667433 
	C42.868484,18.903536 45.223507,19.935669 46.713211,22.853926 
	C47.348923,24.099251 49.659748,24.489470 51.575020,25.376637 
z"/>
</svg>