<svg version="1.1" id="Layer_1" xmlns="http://www.w3.org/2000/svg" xmlns:xlink="http://www.w3.org/1999/xlink" x="0px" y="0px"
	 width="100%" viewBox="0 0 688 368" enable-background="new 0 0 688 368" xml:space="preserve">
<path fill="rgb(243, 201, 78)" opacity="1.000000" stroke="none" 
	d="
M375.081543,93.104897 
	C371.434998,91.082977 368.117371,89.252670 364.941223,87.500397 
	C362.799225,88.408997 363.291382,90.124153 363.297424,91.500465 
	C363.391785,112.990128 363.656372,134.479889 363.593842,155.968781 
	C363.579254,160.990692 365.364868,162.964081 370.365631,163.442047 
	C384.248596,164.769012 397.324646,168.885315 409.431335,175.938690 
	C423.100372,183.902267 431.084534,195.327545 431.256683,211.533279 
	C431.329224,218.365570 430.929382,225.223663 431.391388,232.026093 
	C432.060669,241.880707 427.797913,249.475998 421.210541,256.013977 
	C407.726318,269.397034 391.709930,278.309052 372.752625,280.661316 
	C362.917664,281.881622 352.958405,281.834900 342.977722,279.683502 
	C330.635498,277.023071 318.138702,275.202118 306.709229,269.400330 
	C295.120209,263.517609 285.349426,255.851791 280.704193,243.118362 
	C279.381714,239.493195 278.899963,235.709381 278.830750,231.869461 
	C278.684265,223.741684 278.713776,215.606873 278.371429,207.487579 
	C278.050323,199.872070 281.892914,194.138123 286.384857,188.726654 
	C296.157593,176.953522 309.368439,170.859070 323.709961,166.881805 
	C328.968262,165.423584 334.270050,163.952530 339.780426,163.638321 
	C343.973724,163.399200 345.750183,161.568832 345.726562,156.994278 
	C345.543335,121.497124 345.611206,85.998657 345.607300,50.500599 
	C345.607056,48.334473 345.496552,46.151409 345.722290,44.006207 
	C346.054474,40.848999 347.604523,38.459305 351.130341,38.769478 
	C355.481781,39.152279 360.570374,36.669117 363.807007,42.026142 
	C364.761139,43.605331 366.571167,42.419437 367.916931,41.881596 
	C374.039429,39.434776 380.430725,38.012379 386.948151,38.889736 
	C407.636078,41.674667 427.960175,45.849300 444.863861,59.267284 
	C450.702393,63.901878 450.596985,66.122681 446.317841,72.339691 
	C441.826416,78.865135 435.156769,82.765640 428.577484,86.616837 
	C417.851807,92.895149 406.500488,97.708450 393.749542,97.232018 
	C387.485809,96.997978 381.153015,96.321220 375.081543,93.104897 
M402.023010,229.545944 
	C403.496277,228.458557 405.092896,227.503525 406.423553,226.263107 
	C418.790344,214.735229 420.138031,203.986282 406.736450,192.710052 
	C395.561584,183.307419 382.021912,180.082458 368.002899,178.222916 
	C365.019043,177.827103 364.283936,179.616058 364.284729,182.163132 
	C364.286865,188.992371 364.404846,195.828262 364.144379,202.648819 
	C363.919495,208.536530 359.695526,212.853409 354.597778,212.972778 
	C350.059479,213.079056 346.324890,209.176361 345.468201,203.521820 
	C344.413208,196.558578 345.002563,189.552917 344.915802,182.567749 
	C344.876862,179.432007 343.916565,177.868011 340.502777,178.363403 
	C327.312744,180.277481 314.821228,183.996109 303.998566,192.154678 
	C290.344940,202.447357 289.880798,215.766373 302.818268,226.881058 
	C304.073761,227.959702 305.457855,228.907501 306.859039,229.794815 
	C318.543427,237.194229 331.483429,240.566681 345.136353,241.420898 
	C364.909973,242.658051 384.011688,240.417862 402.023010,229.545944 
z"/>
</svg>