<svg version="1.1" id="Layer_1" xmlns="http://www.w3.org/2000/svg" xmlns:xlink="http://www.w3.org/1999/xlink" x="0px" y="0px"
	 width="100%" viewBox="0 0 288 320" enable-background="new 0 0 288 320" xml:space="preserve">
<path fill="#000000" opacity="1.000000" stroke="none" 
	d="
M254.253693,117.734756 
	C263.862793,123.405327 265.116241,126.464203 260.876404,136.582031 
	C254.222519,152.460617 246.039978,167.497070 234.815689,180.706482 
	C232.231705,183.747437 228.978409,186.082443 226.323959,189.103394 
	C223.189804,192.670288 219.901520,191.743484 217.799637,187.330597 
	C214.865555,181.170486 212.080032,174.940887 210.166595,168.383850 
	C209.138947,164.862244 207.191956,163.762756 203.441345,163.227768 
	C177.599289,159.541672 159.384750,174.699463 140.558640,188.265457 
	C136.266647,191.358261 132.577835,195.317902 128.759598,199.030975 
	C123.818695,203.835754 118.112068,204.094498 112.079323,201.977875 
	C107.355774,200.320618 105.625053,194.664261 107.848457,188.788437 
	C111.614479,178.835876 117.979660,170.480331 124.351440,162.135880 
	C139.564468,142.212952 159.517471,128.865601 182.741119,120.054146 
	C183.958038,119.592422 185.394897,119.513222 186.353317,117.891579 
	C184.583679,113.922073 181.324387,110.826012 178.471054,107.446426 
	C177.291443,106.049225 175.914001,104.812134 174.797836,103.369675 
	C172.451111,100.336861 171.904099,96.998550 173.866501,93.583298 
	C175.722702,90.352844 178.696167,89.192520 182.344986,89.532951 
	C190.873581,90.328674 198.948318,92.982780 206.926636,95.830292 
	C223.239838,101.652611 239.411606,107.838936 254.253693,117.734756 
z"/>
</svg>